<mxfile host="app.diagrams.net" agent="Mozilla/5.0 (X11; Linux x86_64) AppleWebKit/537.36 (KHTML, like Gecko) Chrome/131.0.0.0 Safari/537.36" version="25.0.1">
  <diagram name="Page-1" id="QyioZbvYQkWJ4IRnTY5_">
    <mxGraphModel dx="1320" dy="810" grid="1" gridSize="10" guides="1" tooltips="1" connect="1" arrows="1" fold="1" page="1" pageScale="1" pageWidth="850" pageHeight="1100" math="0" shadow="0">
      <root>
        <mxCell id="0" />
        <mxCell id="1" parent="0" />
        <mxCell id="mf82sQFvVPjIb59fwVj3-1" value="Bel" style="rounded=0;whiteSpace=wrap;html=1;" vertex="1" parent="1">
          <mxGeometry x="600" y="200" width="135" height="70" as="geometry" />
        </mxCell>
        <mxCell id="mf82sQFvVPjIb59fwVj3-2" value="Arm" style="rounded=0;whiteSpace=wrap;html=1;" vertex="1" parent="1">
          <mxGeometry x="600" y="320" width="135" height="70" as="geometry" />
        </mxCell>
        <mxCell id="mf82sQFvVPjIb59fwVj3-8" value="" style="edgeStyle=orthogonalEdgeStyle;rounded=0;orthogonalLoop=1;jettySize=auto;html=1;" edge="1" parent="1" source="mf82sQFvVPjIb59fwVj3-3" target="mf82sQFvVPjIb59fwVj3-4">
          <mxGeometry relative="1" as="geometry" />
        </mxCell>
        <mxCell id="mf82sQFvVPjIb59fwVj3-10" value="" style="edgeStyle=orthogonalEdgeStyle;rounded=0;orthogonalLoop=1;jettySize=auto;html=1;entryX=0;entryY=0.5;entryDx=0;entryDy=0;" edge="1" parent="1" source="mf82sQFvVPjIb59fwVj3-3" target="mf82sQFvVPjIb59fwVj3-2">
          <mxGeometry relative="1" as="geometry">
            <Array as="points">
              <mxPoint x="268" y="355" />
            </Array>
          </mxGeometry>
        </mxCell>
        <mxCell id="mf82sQFvVPjIb59fwVj3-3" value="Router" style="rounded=0;whiteSpace=wrap;html=1;" vertex="1" parent="1">
          <mxGeometry x="200" y="200" width="135" height="70" as="geometry" />
        </mxCell>
        <mxCell id="mf82sQFvVPjIb59fwVj3-4" value="User&lt;br&gt;Info" style="rounded=0;whiteSpace=wrap;html=1;" vertex="1" parent="1">
          <mxGeometry x="360" y="200" width="135" height="70" as="geometry" />
        </mxCell>
        <mxCell id="mf82sQFvVPjIb59fwVj3-6" value="" style="edgeStyle=orthogonalEdgeStyle;rounded=0;orthogonalLoop=1;jettySize=auto;html=1;entryX=0.5;entryY=0;entryDx=0;entryDy=0;" edge="1" parent="1" source="mf82sQFvVPjIb59fwVj3-5" target="mf82sQFvVPjIb59fwVj3-3">
          <mxGeometry relative="1" as="geometry" />
        </mxCell>
        <mxCell id="mf82sQFvVPjIb59fwVj3-7" value="acquirer руками" style="edgeLabel;html=1;align=center;verticalAlign=middle;resizable=0;points=[];" vertex="1" connectable="0" parent="mf82sQFvVPjIb59fwVj3-6">
          <mxGeometry x="-0.1448" relative="1" as="geometry">
            <mxPoint as="offset" />
          </mxGeometry>
        </mxCell>
        <mxCell id="mf82sQFvVPjIb59fwVj3-5" value="Keeper" style="rounded=0;whiteSpace=wrap;html=1;" vertex="1" parent="1">
          <mxGeometry x="200" y="50" width="135" height="70" as="geometry" />
        </mxCell>
      </root>
    </mxGraphModel>
  </diagram>
</mxfile>
